# xmcd
#
# Track frame offsets:
#	150
#	9544
#	14762
#	31864
#	50237
#	65509
#	74754
#	95529
#	104161
#	112855
#	126633
#	141854
#	153557
#	171721
#	184933
#
# Disc length: 2711 seconds
#
# Revision: 0
# Processed by: cddbd v1.5.2PL0 Copyright (c) Steve Scherf et al.
# Submitted via: EasyCDDAExtractor 15.3.0.1
#
DISCID=ed0a950f
DTITLE=Carolina Chocolate Drops - Leaving Eden
DYEAR=2012
DGENRE=Country
TTITLE0=Riro’s House
TTITLE1=Kerr’s Negro Jig
TTITLE2=Ruby, Are You Mad?
TTITLE3=Boodle-De-Bum-Bum
TTITLE4=Country Girl
TTITLE5=Run Mountain
TTITLE6=Leaving Eden
TTITLE7=Read ‘Em John
TTITLE8=Mahalla
TTITLE9=West End Blues
TTITLE10=Po’ Black Sheep
TTITLE11=I Truly Understand That You Love Another Man
TTITLE12=No Man’s Mama
TTITLE13=Briggs’ Corn Shucking Jig
TTITLE14=Pretty Bird
EXTD=
EXTT0=
EXTT1=
EXTT2=
EXTT3=
EXTT4=
EXTT5=
EXTT6=
EXTT7=
EXTT8=
EXTT9=
EXTT10=
EXTT11=
EXTT12=
EXTT13=
EXTT14=
PLAYORDER=
